<svg width="779" height="205" viewBox="0 0 779 205" fill="none" xmlns="http://www.w3.org/2000/svg">
<path d="M279.133 76.8867H250.881L245.51 93H228.376L257.487 14.7969H272.419L301.691 93H284.558L279.133 76.8867ZM255.231 63.835H274.782L264.953 34.5625L255.231 63.835ZM372.719 14.7969V66.3057C372.719 74.8636 370.033 81.6312 364.662 86.6084C359.327 91.5856 352.022 94.0742 342.748 94.0742C333.617 94.0742 326.366 91.6572 320.995 86.8232C315.624 81.9893 312.885 75.347 312.777 66.8965V14.7969H328.891V66.4131C328.891 71.5335 330.108 75.2754 332.543 77.6387C335.014 79.9661 338.415 81.1299 342.748 81.1299C351.807 81.1299 356.409 76.3675 356.552 66.8428V14.7969H372.719ZM431.983 72.4824C431.983 69.4388 430.909 67.1113 428.761 65.5C426.612 63.8529 422.745 62.1341 417.159 60.3438C411.573 58.5176 407.151 56.7272 403.893 54.9727C395.012 50.1745 390.572 43.7113 390.572 35.583C390.572 31.3577 391.754 27.598 394.117 24.3037C396.516 20.9736 399.936 18.3776 404.376 16.5156C408.852 14.6536 413.865 13.7227 419.415 13.7227C425.001 13.7227 429.978 14.7432 434.347 16.7842C438.715 18.7894 442.099 21.6361 444.498 25.3242C446.933 29.0124 448.15 33.2018 448.15 37.8926H432.037C432.037 34.3118 430.909 31.5368 428.653 29.5674C426.397 27.5622 423.229 26.5596 419.146 26.5596C415.208 26.5596 412.146 27.401 409.962 29.084C407.778 30.7311 406.686 32.9154 406.686 35.6367C406.686 38.179 407.957 40.3096 410.499 42.0283C413.077 43.7471 416.855 45.3584 421.832 46.8623C430.999 49.6195 437.677 53.0391 441.866 57.1211C446.056 61.2031 448.15 66.2878 448.15 72.375C448.15 79.1426 445.59 84.46 440.47 88.3271C435.349 92.1585 428.456 94.0742 419.791 94.0742C413.775 94.0742 408.297 92.9821 403.355 90.7979C398.414 88.5778 394.636 85.5521 392.022 81.7207C389.444 77.8893 388.155 73.4492 388.155 68.4004H404.322C404.322 77.0299 409.479 81.3447 419.791 81.3447C423.622 81.3447 426.612 80.5749 428.761 79.0352C430.909 77.4596 431.983 75.2754 431.983 72.4824ZM494.331 71.9453C494.331 68.3288 495.334 64.9808 497.339 61.9014C499.38 58.8219 503.104 55.4023 508.511 51.6426C506.183 48.5273 504.357 45.609 503.032 42.8877C501.707 40.1305 501.045 37.266 501.045 34.2939C501.045 28.2067 502.961 23.2653 506.792 19.4697C510.659 15.6383 515.851 13.7227 522.368 13.7227C528.205 13.7227 532.985 15.4593 536.709 18.9326C540.469 22.4059 542.349 26.7386 542.349 31.9307C542.349 38.1611 539.198 43.6576 532.896 48.4199L526.88 52.7705L540.361 68.4541C542.474 64.3005 543.53 59.7171 543.53 54.7041H556.743C556.743 64.8734 554.398 73.109 549.707 79.4111L561.416 93H543.799L539.771 88.3809C534.006 92.1764 527.381 94.0742 519.897 94.0742C512.163 94.0742 505.968 92.0511 501.313 88.0049C496.659 83.9229 494.331 78.5697 494.331 71.9453ZM520.649 81.6133C524.373 81.6133 527.9 80.5749 531.23 78.498L515.815 60.666L514.688 61.4717C511.501 64.193 509.907 67.3978 509.907 71.0859C509.907 74.2012 510.892 76.7435 512.861 78.7129C514.867 80.6465 517.463 81.6133 520.649 81.6133ZM514.956 34.0791C514.956 36.7646 516.532 40.1484 519.683 44.2305L523.818 41.4912C525.931 40.1305 527.381 38.8057 528.169 37.5166C528.993 36.2275 529.404 34.6878 529.404 32.8975C529.404 31.1071 528.742 29.5495 527.417 28.2246C526.092 26.8997 524.391 26.2373 522.314 26.2373C520.094 26.2373 518.304 26.9535 516.943 28.3857C515.618 29.818 514.956 31.7158 514.956 34.0791ZM296.857 193.117C293.957 196.59 289.857 199.294 284.558 201.228C279.258 203.125 273.386 204.074 266.94 204.074C260.173 204.074 254.229 202.606 249.108 199.67C244.024 196.698 240.085 192.401 237.292 186.779C234.535 181.158 233.12 174.551 233.049 166.96V161.643C233.049 153.837 234.356 147.087 236.97 141.394C239.619 135.664 243.415 131.296 248.356 128.288C253.334 125.244 259.152 123.723 265.812 123.723C275.087 123.723 282.338 125.943 287.565 130.383C292.793 134.787 295.891 141.215 296.857 149.665H281.174C280.458 145.189 278.864 141.913 276.394 139.836C273.959 137.759 270.593 136.721 266.296 136.721C260.817 136.721 256.646 138.78 253.781 142.897C250.917 147.015 249.466 153.138 249.431 161.267V166.262C249.431 174.462 250.988 180.656 254.104 184.846C257.219 189.035 261.784 191.13 267.8 191.13C273.851 191.13 278.166 189.841 280.744 187.263V173.781H266.081V161.911H296.857V193.117ZM331.576 190.056H365.79V203H315.463V124.797H331.576V190.056ZM425.807 186.887H397.555L392.184 203H375.05L404.161 124.797H419.093L448.365 203H431.231L425.807 186.887ZM401.905 173.835H421.456L411.627 144.562L401.905 173.835ZM482.225 124.797L502.312 181.516L522.293 124.797H543.455V203H527.288V181.623L528.899 144.724L507.791 203H496.727L475.672 144.777L477.283 181.623V203H461.17V124.797H482.225ZM579.141 175.446V203H563.027V124.797H593.535C599.408 124.797 604.564 125.871 609.004 128.02C613.48 130.168 616.917 133.229 619.316 137.204C621.715 141.143 622.915 145.637 622.915 150.686C622.915 158.348 620.283 164.4 615.02 168.84C609.792 173.244 602.541 175.446 593.267 175.446H579.141ZM579.141 162.395H593.535C597.796 162.395 601.037 161.392 603.257 159.387C605.513 157.382 606.641 154.517 606.641 150.793C606.641 146.962 605.513 143.864 603.257 141.501C601.001 139.138 597.886 137.92 593.911 137.849H579.141V162.395ZM686.584 169.108H655.646V190.056H691.955V203H639.533V124.797H691.848V137.849H655.646V156.486H686.584V169.108ZM735.858 174.372H723.021V203H706.908V124.797H735.966C745.204 124.797 752.33 126.856 757.343 130.974C762.356 135.091 764.862 140.91 764.862 148.43C764.862 153.765 763.699 158.223 761.371 161.804C759.079 165.349 755.588 168.177 750.897 170.29L767.816 202.248V203H750.521L735.858 174.372ZM723.021 161.32H736.02C740.066 161.32 743.199 160.3 745.419 158.259C747.639 156.182 748.749 153.335 748.749 149.719C748.749 146.031 747.693 143.13 745.58 141.018C743.503 138.905 740.299 137.849 735.966 137.849H723.021V161.32Z" fill="black"/>
<path d="M109.561 9H135.636L26.0749 203H0L109.561 9Z" fill="#AD6800"/>
<path d="M84.4393 9H56.7203L166.281 203H194L84.4393 9Z" fill="#AD6800"/>
<path d="M52.6102 76.4069H24.8913L97.2302 203H124.949L52.6102 76.4069Z" fill="#AD6800"/>
</svg>
